<svg xmlns="http://www.w3.org/2000/svg" width="59.036" height="66" viewBox="0 0 59.036 66">
  <g id="shopping-online-marketing-seo-bag" transform="translate(-4 -2)">
    <path id="Path_523" data-name="Path 523" d="M4,62.8l4.552-.762v-23.1L4,38.18Z" transform="translate(0 4.99)" fill="#cb652b"/>
    <ellipse id="Ellipse_60" data-name="Ellipse 60" cx="1" cy="1.5" rx="1" ry="1.5" transform="translate(54 20)" fill="#cb652b"/>
    <path id="Path_524" data-name="Path 524" d="M60.069,54.142v1.036a1.138,1.138,0,0,1-.762,1.081L41.669,62.483H22.7L10,58.25V42h6.668l17.547,5.166a1.147,1.147,0,0,1,.819,1.092v.569A1.138,1.138,0,0,1,33.9,49.966H20.241a1.138,1.138,0,0,0-.558,2.128l10.241,5.69a1.078,1.078,0,0,0,.558.148H41.862a.982.982,0,0,0,.319-.046l16.432-4.836a1.138,1.138,0,0,1,1.457,1.092Z" transform="translate(0.828 5.517)" fill="#cb652b"/>
    <circle id="Ellipse_61" data-name="Ellipse 61" cx="1.5" cy="1.5" r="1.5" transform="translate(40 20)" fill="#cb652b"/>
    <path id="Path_525" data-name="Path 525" d="M59.433,41.31H30.12L33.272,14h3.539v2.481a3.414,3.414,0,1,0,2.276,0V14H50.466v2.481a3.414,3.414,0,1,0,2.276,0V14h3.539Z" transform="translate(3.603 1.655)" fill="#cb652b"/>
    <path id="Path_526" data-name="Path 526" d="M38.276,9.966a5.69,5.69,0,0,1,11.379,0v3.414h2.276V9.966A7.966,7.966,0,1,0,36,9.966v3.414h2.276Z" transform="translate(4.414 0)" fill="#cb652b"/>
  </g>
</svg>
