<svg xmlns="http://www.w3.org/2000/svg" width="69.405" height="81" viewBox="0 0 69.405 81">
  <g id="scale_1_" data-name="scale (1)" transform="translate(-36.645)">
    <g id="Group_289" data-name="Group 289" transform="translate(36.645)">
      <g id="Group_288" data-name="Group 288">
        <path id="Path_814" data-name="Path 814" d="M94.285,14.292A28.721,28.721,0,0,0,105.714,3.643,2.413,2.413,0,0,0,103.637,0H39.058a2.413,2.413,0,0,0-2.076,3.643A28.72,28.72,0,0,0,48.41,14.292,34.174,34.174,0,0,0,62.16,18.1v6.2h-11.4a8.46,8.46,0,0,0-8.389,7.424l-4.873,39.8A8.451,8.451,0,0,0,45.882,81H96.815a8.451,8.451,0,0,0,8.389-9.478l-4.873-39.8A8.46,8.46,0,0,0,91.941,24.3H80.536V18.1A34.183,34.183,0,0,0,94.285,14.292ZM91.941,29.126a3.629,3.629,0,0,1,3.6,3.185l4.873,39.8a3.625,3.625,0,0,1-3.6,4.066H45.882a3.626,3.626,0,0,1-3.6-4.066l4.873-39.8a3.629,3.629,0,0,1,3.6-3.184H91.941ZM66.986,24.3V18.173H75.71V24.3ZM78.3,13.347H64.393c-8.182,0-15.688-3.182-20.556-8.521H98.859C93.99,10.164,86.484,13.347,78.3,13.347Z" transform="translate(-36.645)"/>
      </g>
    </g>
    <g id="Group_291" data-name="Group 291" transform="translate(51.574 32.875)">
      <g id="Group_290" data-name="Group 290">
        <path id="Path_815" data-name="Path 815" d="M150.782,207.8a19.775,19.775,0,1,0,19.775,19.775A19.8,19.8,0,0,0,150.782,207.8Zm0,34.724a14.949,14.949,0,1,1,14.949-14.949A14.966,14.966,0,0,1,150.782,242.527Z" transform="translate(-131.007 -207.803)"/>
      </g>
    </g>
    <g id="Group_293" data-name="Group 293" transform="translate(63.126 50.237)">
      <g id="Group_292" data-name="Group 292">
        <path id="Path_816" data-name="Path 816" d="M213.957,318.254a2.413,2.413,0,0,0-3.412,0l-5.81,5.81a2.413,2.413,0,1,0,3.412,3.412l5.81-5.81A2.413,2.413,0,0,0,213.957,318.254Z" transform="translate(-204.028 -317.547)"/>
      </g>
    </g>
  </g>
</svg>
