<svg xmlns="http://www.w3.org/2000/svg" width="90.082" height="90.082" viewBox="0 0 90.082 90.082">
  <g id="tray_1_" data-name="tray (1)" transform="translate(0.5 0.5)">
    <g id="Group_251" data-name="Group 251" transform="translate(14.847 54.933)">
      <g id="Group_250" data-name="Group 250">
        <path id="Path_771" data-name="Path 771" d="M149.887,318.975c-.086-.144-.177-.282-.267-.4a5.786,5.786,0,0,0-8.075-1.333l-16.6,11.852H107.6a1.485,1.485,0,0,1,0-2.969h9.651a5.2,5.2,0,0,0,5.2-5.2c0-.016,0-.153,0-.168a5.214,5.214,0,0,0-5.312-5.029H97.822a7.451,7.451,0,0,0-4.693,1.724l-7.26,6.043a1.489,1.489,0,0,0-.535,1.142v17.816a1.484,1.484,0,0,0,1.485,1.485h36.837a10.417,10.417,0,0,0,6.616-2.389l18-14.872A5.835,5.835,0,0,0,149.887,318.975Zm-3.422,5.348L128.38,339.26a7.45,7.45,0,0,1-4.726,1.707H88.3V325.332l6.727-5.6a4.466,4.466,0,0,1,2.8-1.035h19.349a2.269,2.269,0,0,1,2.3,2.229,2.23,2.23,0,0,1-2.227,2.227H107.6a4.454,4.454,0,1,0,0,8.908h17.816a1.5,1.5,0,0,0,.866-.276l16.988-12.131a2.818,2.818,0,0,1,3.942.659c.045.061.085.123.123.187A2.883,2.883,0,0,1,146.465,324.322Z" transform="translate(-85.334 -315.726)" stroke="#010101" stroke-width="1"/>
      </g>
    </g>
    <g id="Group_253" data-name="Group 253" transform="translate(0 60.873)">
      <g id="Group_252" data-name="Group 252">
        <path id="Path_772" data-name="Path 772" d="M16.287,349.867H0v2.969H14.8v22.271H0v2.969H16.287a1.484,1.484,0,0,0,1.485-1.485v-25.24A1.484,1.484,0,0,0,16.287,349.867Z" transform="translate(0 -349.867)" stroke="#010101" stroke-width="1"/>
      </g>
    </g>
    <g id="Group_255" data-name="Group 255" transform="translate(2.969 74.235)">
      <g id="Group_254" data-name="Group 254">
        <path id="Path_773" data-name="Path 773" d="M21.521,426.667a4.454,4.454,0,1,0,4.454,4.454A4.46,4.46,0,0,0,21.521,426.667Zm0,5.939a1.485,1.485,0,1,1,1.485-1.485A1.486,1.486,0,0,1,21.521,432.606Z" transform="translate(-17.067 -426.667)" stroke="#010101" stroke-width="1"/>
      </g>
    </g>
    <g id="Group_257" data-name="Group 257" transform="translate(0 46.026)">
      <g id="Group_256" data-name="Group 256">
        <path id="Path_774" data-name="Path 774" d="M87.6,264.533H1.485A1.484,1.484,0,0,0,0,266.018,10.405,10.405,0,0,0,10.393,276.41h68.3a10.406,10.406,0,0,0,10.393-10.393A1.483,1.483,0,0,0,87.6,264.533Zm-8.908,8.908h-68.3A7.435,7.435,0,0,1,3.119,267.5H85.963A7.435,7.435,0,0,1,78.689,273.441Z" transform="translate(0 -264.533)" stroke="#010101" stroke-width="1"/>
      </g>
    </g>
    <g id="Group_259" data-name="Group 259" transform="translate(5.939 7.424)">
      <g id="Group_258" data-name="Group 258">
        <path id="Path_775" data-name="Path 775" d="M72.735,42.667a38.647,38.647,0,0,0-38.6,38.6v1.485a1.484,1.484,0,0,0,1.485,1.485h74.235a1.483,1.483,0,0,0,1.485-1.485V81.269A38.646,38.646,0,0,0,72.735,42.667ZM37.1,81.269a35.633,35.633,0,1,1,71.266,0Z" transform="translate(-34.133 -42.667)" stroke="#010101" stroke-width="1"/>
      </g>
    </g>
    <g id="Group_261" data-name="Group 261" transform="translate(17.261 24.359)">
      <g id="Group_260" data-name="Group 260">
        <path id="Path_776" data-name="Path 776" d="M102.068,140.006a33.191,33.191,0,0,0-2.859,3.713l2.475,1.641a30.34,30.34,0,0,1,2.6-3.382Z" transform="translate(-99.209 -140.006)" stroke="#010101" stroke-width="1"/>
      </g>
    </g>
    <g id="Group_263" data-name="Group 263" transform="translate(22.189 13.362)">
      <g id="Group_262" data-name="Group 262">
        <path id="Path_777" data-name="Path 777" d="M149.883,76.8a32.546,32.546,0,0,0-22.352,8.867l2.034,2.163a29.583,29.583,0,0,1,20.32-8.06Z" transform="translate(-127.531 -76.8)" stroke="#010101" stroke-width="1"/>
      </g>
    </g>
    <g id="Group_265" data-name="Group 265" transform="translate(40.087)">
      <g id="Group_264" data-name="Group 264">
        <rect id="Rectangle_160" data-name="Rectangle 160" width="8.908" height="2.969" stroke="#010101" stroke-width="1"/>
      </g>
    </g>
    <g id="Group_267" data-name="Group 267" transform="translate(43.056 1.485)">
      <g id="Group_266" data-name="Group 266">
        <rect id="Rectangle_161" data-name="Rectangle 161" width="2.969" height="7.424" stroke="#010101" stroke-width="1"/>
      </g>
    </g>
  </g>
</svg>
