<svg xmlns="http://www.w3.org/2000/svg" width="81.171" height="81.171" viewBox="0 0 81.171 81.171">
  <g id="add_2_" data-name="add (2)" transform="translate(0.5 0.5)">
    <g id="Group_243" data-name="Group 243">
      <g id="Group_242" data-name="Group 242">
        <path id="Path_761" data-name="Path 761" d="M40.085,0A40.085,40.085,0,1,0,80.171,40.085,40.129,40.129,0,0,0,40.085,0Zm0,73.961A33.876,33.876,0,1,1,73.961,40.085,33.915,33.915,0,0,1,40.085,73.961Z" fill="#cb652b" stroke="#fff" stroke-width="1"/>
      </g>
    </g>
    <g id="Group_245" data-name="Group 245" transform="translate(21.455 21.176)">
      <g id="Group_244" data-name="Group 244">
        <path id="Path_762" data-name="Path 762" d="M171.177,150.763h-12.42v-12.42a3.105,3.105,0,1,0-6.21,0v12.42h-12.42a3.105,3.105,0,0,0,0,6.21h12.42v12.42a3.105,3.105,0,0,0,6.21,0v-12.42h12.42a3.105,3.105,0,1,0,0-6.21Z" transform="translate(-137.022 -135.238)" fill="#cb652b"/>
      </g>
    </g>
  </g>
</svg>
