<svg xmlns="http://www.w3.org/2000/svg" width="44.439" height="44.439" viewBox="0 0 44.439 44.439">
  <g id="calendar_1_" data-name="calendar (1)" transform="translate(10 1)">
    <g id="Group_249" data-name="Group 249" transform="translate(-10 -1)">
      <g id="Group_248" data-name="Group 248">
        <ellipse id="Ellipse_79" data-name="Ellipse 79" cx="1.713" cy="2.141" rx="1.713" ry="2.141" transform="translate(31.689 16.176)" fill="#cb652b"/>
        <path id="Path_768" data-name="Path 768" d="M37.5,3.472H35.239V1.736a1.736,1.736,0,1,0-3.472,0V3.472h-7.9V1.736a1.736,1.736,0,1,0-3.472,0V3.472H12.585V1.736a1.736,1.736,0,0,0-3.472,0V3.472H6.944A6.952,6.952,0,0,0,0,10.415V37.5a6.952,6.952,0,0,0,6.944,6.944h13.28a1.736,1.736,0,1,0,0-3.472H6.944A3.476,3.476,0,0,1,3.472,37.5V10.415A3.476,3.476,0,0,1,6.944,6.944h2.17V8.68a1.736,1.736,0,1,0,3.472,0V6.944H20.4V8.68a1.736,1.736,0,1,0,3.472,0V6.944h7.9V8.68a1.736,1.736,0,1,0,3.472,0V6.944H37.5a3.476,3.476,0,0,1,3.472,3.472V20.31a1.736,1.736,0,1,0,3.472,0V10.415A6.952,6.952,0,0,0,37.5,3.472Z" fill="#cb652b"/>
        <path id="Path_769" data-name="Path 769" d="M280.5,270A10.5,10.5,0,1,0,291,280.5,10.514,10.514,0,0,0,280.5,270Zm0,17.533a7.03,7.03,0,1,1,7.03-7.03A7.038,7.038,0,0,1,280.5,287.533Z" transform="translate(-246.565 -246.565)" fill="#cb652b"/>
        <path id="Path_770" data-name="Path 770" d="M375.253,333.559h-.781v-1.823a1.736,1.736,0,0,0-3.472,0v3.559a1.736,1.736,0,0,0,1.736,1.736h2.517a1.736,1.736,0,1,0,0-3.472Z" transform="translate(-338.799 -301.357)" fill="#cb652b"/>
        <ellipse id="Ellipse_80" data-name="Ellipse 80" cx="1.713" cy="2.141" rx="1.713" ry="2.141" transform="translate(23.981 16.176)" fill="#cb652b"/>
        <circle id="Ellipse_81" data-name="Ellipse 81" cx="1.713" cy="1.713" r="1.713" transform="translate(16.273 23.884)" fill="#cb652b"/>
        <circle id="Ellipse_82" data-name="Ellipse 82" cx="2.141" cy="2.141" r="2.141" transform="translate(8.565 16.176)" fill="#cb652b"/>
        <ellipse id="Ellipse_83" data-name="Ellipse 83" cx="2.141" cy="1.713" rx="2.141" ry="1.713" transform="translate(8.565 23.884)" fill="#cb652b"/>
        <ellipse id="Ellipse_84" data-name="Ellipse 84" cx="2.141" cy="1.713" rx="2.141" ry="1.713" transform="translate(8.565 31.592)" fill="#cb652b"/>
        <circle id="Ellipse_85" data-name="Ellipse 85" cx="1.713" cy="1.713" r="1.713" transform="translate(16.273 31.592)" fill="#cb652b"/>
        <ellipse id="Ellipse_86" data-name="Ellipse 86" cx="1.713" cy="2.141" rx="1.713" ry="2.141" transform="translate(16.273 16.176)" fill="#cb652b"/>
      </g>
    </g>
  </g>
</svg>
