<svg id="compass" xmlns="http://www.w3.org/2000/svg" width="63.291" height="63.291" viewBox="0 0 63.291 63.291">
  <g id="Group_921" data-name="Group 921">
    <g id="Group_920" data-name="Group 920">
      <path id="Path_1859" data-name="Path 1859" d="M31.645,0A31.645,31.645,0,1,0,63.291,31.645,31.645,31.645,0,0,0,31.645,0Zm0,61.249a29.6,29.6,0,1,1,29.6-29.6A29.6,29.6,0,0,1,31.645,61.249Z"/>
      <path id="Path_1860" data-name="Path 1860" d="M115.467,145.9a1.021,1.021,0,0,0-.759,0h0l-32.19,12.731a1.021,1.021,0,0,0-.04,1.881l13.115,5.829,5.83,13.116a1.021,1.021,0,0,0,.933.606h.021a1.021,1.021,0,0,0,.928-.646l12.73-32.19A1.021,1.021,0,0,0,115.467,145.9ZM102.3,176.405l-5-11.252a1.021,1.021,0,0,0-.519-.519l-11.251-5,27.738-10.964Z" transform="translate(-71.425 -127.219)"/>
    </g>
  </g>
</svg>
