<svg id="copy" xmlns="http://www.w3.org/2000/svg" width="79.613" height="79.613" viewBox="0 0 79.613 79.613">
  <g id="Group_942" data-name="Group 942" transform="translate(0 14.217)">
    <g id="Group_941" data-name="Group 941">
      <path id="Path_1881" data-name="Path 1881" d="M56.867,85.333H8.53A8.53,8.53,0,0,0,0,93.863V142.2a8.53,8.53,0,0,0,8.53,8.53H56.867a8.53,8.53,0,0,0,8.53-8.53V93.863A8.53,8.53,0,0,0,56.867,85.333ZM59.71,142.2a2.843,2.843,0,0,1-2.843,2.843H8.53A2.843,2.843,0,0,1,5.687,142.2V93.863A2.843,2.843,0,0,1,8.53,91.02H56.867a2.843,2.843,0,0,1,2.843,2.843Z" transform="translate(0 -85.333)" fill="#fff"/>
    </g>
  </g>
  <g id="Group_944" data-name="Group 944" transform="translate(11.373)">
    <g id="Group_943" data-name="Group 943">
      <path id="Path_1882" data-name="Path 1882" d="M127.977,0H76.8a8.53,8.53,0,0,0-8.53,8.53,2.843,2.843,0,1,0,5.687,0A2.843,2.843,0,0,1,76.8,5.687h51.18A2.843,2.843,0,0,1,130.82,8.53V59.71a2.843,2.843,0,0,1-2.843,2.843,2.843,2.843,0,1,0,0,5.687,8.53,8.53,0,0,0,8.53-8.53V8.53A8.53,8.53,0,0,0,127.977,0Z" transform="translate(-68.267)" fill="#fff"/>
    </g>
  </g>
</svg>
