<svg xmlns="http://www.w3.org/2000/svg" width="51.026" height="50.77" viewBox="0 0 51.026 50.77">
  <g id="edit" transform="translate(0 -0.261)">
    <path id="Path_590" data-name="Path 590" d="M47.1,66.088a1.271,1.271,0,0,0-1.271,1.271V78.643a3.816,3.816,0,0,1-3.812,3.812H6.354a3.816,3.816,0,0,1-3.812-3.812V45.526a3.817,3.817,0,0,1,3.812-3.812H17.638a1.271,1.271,0,1,0,0-2.542H6.354A6.361,6.361,0,0,0,0,45.526V78.643A6.361,6.361,0,0,0,6.354,85H42.012a6.361,6.361,0,0,0,6.354-6.354V67.359A1.271,1.271,0,0,0,47.1,66.088Zm0,0" transform="translate(0 -33.966)" fill="#5a5959"/>
    <path id="Path_591" data-name="Path 591" d="M142.3,1.936a5.719,5.719,0,0,0-8.088,0L111.544,24.608a1.27,1.27,0,0,0-.326.559l-2.981,10.764A1.271,1.271,0,0,0,109.8,37.5l10.764-2.982a1.27,1.27,0,0,0,.559-.326L143.8,11.515a5.725,5.725,0,0,0,0-8.088Zm-27.991,23.5L132.869,6.878l5.984,5.984L120.3,31.418Zm-1.2,2.4,4.781,4.781-6.613,1.832ZM142,9.718l-1.348,1.348-5.985-5.985,1.348-1.348a3.177,3.177,0,0,1,4.493,0L142,5.224A3.182,3.182,0,0,1,142,9.718Zm0,0" transform="translate(-94.441)" fill="#5a5959"/>
  </g>
</svg>
