<svg id="information_1_" data-name="information (1)" xmlns="http://www.w3.org/2000/svg" width="94.258" height="94.258" viewBox="0 0 94.258 94.258">
  <g id="Group_418" data-name="Group 418">
    <g id="Group_417" data-name="Group 417">
      <circle id="Ellipse_92" data-name="Ellipse 92" cx="4.602" cy="4.602" r="4.602" transform="translate(42.526 65.078)" fill="#fff"/>
      <path id="Path_893" data-name="Path 893" d="M47.129,0A47.129,47.129,0,1,0,94.258,47.129,47.1,47.1,0,0,0,47.129,0Zm0,86.894A39.765,39.765,0,1,1,86.894,47.129,39.743,39.743,0,0,1,47.129,86.894Z" fill="#fff"/>
      <path id="Path_894" data-name="Path 894" d="M190.728,128.5A14.744,14.744,0,0,0,176,143.228a3.682,3.682,0,1,0,7.364,0,7.364,7.364,0,1,1,7.364,7.364,3.682,3.682,0,0,0-3.682,3.682v9.2a3.682,3.682,0,0,0,7.364,0V157.49a14.729,14.729,0,0,0-3.682-28.99Z" transform="translate(-143.599 -104.844)" fill="#fff"/>
    </g>
  </g>
</svg>
