<svg xmlns="http://www.w3.org/2000/svg" width="96.659" height="96.659" viewBox="0 0 96.659 96.659">
  <g id="information_4_" data-name="information (4)" transform="translate(0)">
    <path id="Path_1872" data-name="Path 1872" d="M412,127.888A1.888,1.888,0,1,0,413.888,126,1.889,1.889,0,0,0,412,127.888Zm0,0" transform="translate(-334.22 -102.213)" fill="#fff"/>
    <path id="Path_1873" data-name="Path 1873" d="M436.319,178.316a35.96,35.96,0,0,1-.72,7.174,1.888,1.888,0,0,0,1.472,2.227,1.86,1.86,0,0,0,.38.039,1.89,1.89,0,0,0,1.848-1.511,39.733,39.733,0,0,0,.8-7.929,39.218,39.218,0,0,0-3.833-17,1.888,1.888,0,1,0-3.409,1.625,35.474,35.474,0,0,1,3.465,15.378Zm0,0" transform="translate(-350.988 -129.986)" fill="#fff"/>
    <path id="Path_1874" data-name="Path 1874" d="M216.767,232.43h-1.888V207.888A1.888,1.888,0,0,0,212.991,206h-15.1A1.888,1.888,0,0,0,196,207.888v7.551a1.888,1.888,0,0,0,1.888,1.888h1.888v15.1h-1.888A1.888,1.888,0,0,0,196,234.318v7.551a1.888,1.888,0,0,0,1.888,1.888h18.879a1.888,1.888,0,0,0,1.888-1.888v-7.551A1.888,1.888,0,0,0,216.767,232.43Zm-1.888,7.551h-15.1v-3.776h1.888a1.888,1.888,0,0,0,1.888-1.888V215.439a1.888,1.888,0,0,0-1.888-1.888h-1.888v-3.776H211.1v24.542a1.888,1.888,0,0,0,1.888,1.888h1.888Zm0,0" transform="translate(-158.998 -167.11)" fill="#fff"/>
    <path id="Path_1875" data-name="Path 1875" d="M223.551,121.1A7.551,7.551,0,1,0,216,113.551,7.56,7.56,0,0,0,223.551,121.1Zm0-11.327a3.776,3.776,0,1,1-3.776,3.776A3.78,3.78,0,0,1,223.551,109.776Zm0,0" transform="translate(-175.222 -85.989)" fill="#fff"/>
    <path id="Path_1876" data-name="Path 1876" d="M48.329,0C22.281,0,0,22.239,0,48.33a51.48,51.48,0,0,0,6.86,25.559L.1,94.175a1.888,1.888,0,0,0,2.389,2.387L22.771,89.8a51.468,51.468,0,0,0,25.558,6.86c26.055,0,48.33-22.242,48.33-48.33C96.659,22.275,74.417,0,48.329,0Zm0,92.883a47.22,47.22,0,0,1-24.308-6.748,1.887,1.887,0,0,0-1.608-.2L4.873,91.786,10.72,74.245a1.885,1.885,0,0,0-.2-1.608A47.218,47.218,0,0,1,3.775,48.329c0-24.151,20.4-44.554,44.554-44.554s44.554,20.4,44.554,44.554S72.48,92.883,48.329,92.883Zm0,0" transform="translate(0)" fill="#fff"/>
  </g>
</svg>
