<svg id="language_1_" data-name="language (1)" xmlns="http://www.w3.org/2000/svg" width="87.161" height="87.161" viewBox="0 0 87.161 87.161">
  <path id="Path_1862" data-name="Path 1862" d="M87.161,42.668A42.669,42.669,0,0,1,48.979,85.1a42.819,42.819,0,0,1-26.165-5.673L0,87.161,7.73,64.347A42.682,42.682,0,0,1,14.32,12.5,42.389,42.389,0,0,1,44.49,0h.085A42.67,42.67,0,0,1,87.161,42.668Z" fill="#cb652b"/>
  <path id="Path_1863" data-name="Path 1863" d="M304.433,42.668A42.669,42.669,0,0,1,266.251,85.1a42.9,42.9,0,0,1-4.4.233V0a42.67,42.67,0,0,1,42.585,42.668Z" transform="translate(-217.272)" fill="#af5623"/>
  <path id="Path_1864" data-name="Path 1864" d="M116.612,74.543a29.8,29.8,0,1,0,29.8,29.8A29.83,29.83,0,0,0,116.612,74.543Zm24.308,27.125H129.865c-.755-8.294-4.8-16.263-7.806-21.171A24.512,24.512,0,0,1,140.92,101.668ZM116.612,81.892c2.67,4.128,7.024,11.9,7.883,19.777H108.676c.866-7.867,5.251-15.652,7.933-19.782C116.61,81.888,116.61,81.89,116.612,81.892ZM111.148,80.5c-3.021,4.909-7.085,12.875-7.844,21.166h-11A24.512,24.512,0,0,1,111.148,80.5ZM92.3,107.012h11c.759,8.291,4.823,16.257,7.844,21.166A24.516,24.516,0,0,1,92.3,107.012Zm24.3,19.78c-2.682-4.123-7.065-11.9-7.927-19.78h15.817c-.859,7.856-5.211,15.632-7.881,19.766Zm5.455,1.389c3-4.907,7.051-12.877,7.806-21.169H140.92A24.512,24.512,0,0,1,122.058,128.181Z" transform="translate(-72.036 -61.853)" fill="#fff"/>
  <path id="Path_1865" data-name="Path 1865" d="M261.848,74.543v7.349c2.67,4.128,7.024,11.9,7.883,19.777h-7.883v5.343h7.881c-.859,7.856-5.211,15.632-7.881,19.766v7.359a29.8,29.8,0,0,0,0-59.594Zm5.447,5.954a24.512,24.512,0,0,1,18.861,21.171H275.1C274.346,93.374,270.3,85.406,267.295,80.5Zm0,47.684c3-4.907,7.051-12.877,7.806-21.169h11.055A24.512,24.512,0,0,1,267.295,128.181Z" transform="translate(-217.272 -61.853)" fill="#e1e1e4"/>
</svg>
