<svg xmlns="http://www.w3.org/2000/svg" width="45.502" height="50.684" viewBox="0 0 45.502 50.684">
  <g id="shopping-online-marketing-seo-bag" transform="translate(-3.5 -1.5)">
    <path id="Path_523" data-name="Path 523" d="M4,56.717l3.426-.574V38.754L4,38.18Z" transform="translate(0 -5.188)" fill="#cb652b" stroke="#000" stroke-width="1"/>
    <ellipse id="Ellipse_60" data-name="Ellipse 60" cx="0.753" cy="1.129" rx="0.753" ry="1.129" transform="translate(41.639 15.55)" fill="#cb652b" stroke="#000" stroke-width="1"/>
    <path id="Path_524" data-name="Path 524" d="M47.691,51.14v.78a.857.857,0,0,1-.574.814L33.84,57.419H19.56L10,54.232V42h5.02l13.209,3.889a.863.863,0,0,1,.617.822v.428a.857.857,0,0,1-.857.857H17.71a.857.857,0,0,0-.42,1.6L25,53.881a.811.811,0,0,0,.42.111h8.566a.739.739,0,0,0,.24-.034l12.369-3.641a.857.857,0,0,1,1.1.822Z" transform="translate(-0.86 -5.735)" fill="#cb652b" stroke="#000" stroke-width="1"/>
    <circle id="Ellipse_61" data-name="Ellipse 61" cx="1.129" cy="1.129" r="1.129" transform="translate(31.1 15.55)" fill="#cb652b" stroke="#000" stroke-width="1"/>
    <path id="Path_525" data-name="Path 525" d="M52.186,34.559H30.12L32.493,14h2.664v1.867a2.57,2.57,0,1,0,1.713,0V14h8.566v1.867a2.57,2.57,0,1,0,1.713,0V14h2.664Z" transform="translate(-3.745 -1.721)" fill="#cb652b" stroke="#000" stroke-width="1"/>
    <path id="Path_526" data-name="Path 526" d="M37.713,8a4.283,4.283,0,1,1,8.566,0v2.57h1.713V8A6,6,0,1,0,36,8v2.57h1.713Z" transform="translate(-4.588 0)" fill="#cb652b" stroke="#000" stroke-width="1"/>
  </g>
</svg>
