<svg xmlns="http://www.w3.org/2000/svg" width="105.828" height="105.828" viewBox="0 0 105.828 105.828">
  <g id="price-tag" transform="translate(0 0)">
    <path id="Path_1877" data-name="Path 1877" d="M180.364,161.06l14.615-43.847a3.1,3.1,0,0,0-5.883-1.961L174.481,159.1a3.1,3.1,0,1,0,5.883,1.961Z" transform="translate(-138.29 -89.748)" fill="#cb652b"/>
    <path id="Path_1878" data-name="Path 1878" d="M273.834,207.806a9.3,9.3,0,1,0-9.3-9.3A9.312,9.312,0,0,0,273.834,207.806Zm0-12.4a3.1,3.1,0,1,1-3.1,3.1A3.1,3.1,0,0,1,273.834,195.4Z" transform="translate(-209.855 -150.096)" fill="#cb652b"/>
    <path id="Path_1879" data-name="Path 1879" d="M104.128,189.2a9.3,9.3,0,1,0,9.3,9.3A9.312,9.312,0,0,0,104.128,189.2Zm0,12.4a3.1,3.1,0,1,1,3.1-3.1A3.1,3.1,0,0,1,104.128,201.6Z" transform="translate(-75.227 -150.096)" fill="#cb652b"/>
    <path id="Path_1880" data-name="Path 1880" d="M105.208,38.445,94.4,24.03l.422-2.952a3.1,3.1,0,0,0-.877-2.631L87.364,11.87l6.577-6.577A3.1,3.1,0,0,0,89.556.908L82.979,7.485,76.4.908A3.1,3.1,0,0,0,73.772.031L43.079,4.416a3.1,3.1,0,0,0-1.754.877l-38,38a11.381,11.381,0,0,0,0,16.077L35.479,91.525a11.34,11.34,0,0,0,2.14,1.678V94.46a11.381,11.381,0,0,0,11.368,11.368H94.46A11.381,11.381,0,0,0,105.828,94.46V40.306a3.1,3.1,0,0,0-.62-1.86Zm-97.5,16.54a5.173,5.173,0,0,1,0-7.308l37.27-37.27L73.114,6.389l5.481,5.481L74.21,16.255l-2.192-2.192a3.1,3.1,0,0,0-4.385,4.385L76.4,27.216a3.1,3.1,0,0,0,4.384-4.385l-2.192-2.192,4.385-4.385,5.481,5.481L84.441,49.871,47.171,87.14a5.168,5.168,0,0,1-7.308,0ZM99.627,94.46a5.173,5.173,0,0,1-5.167,5.167H48.987a5.173,5.173,0,0,1-5.152-4.786,11.324,11.324,0,0,0,7.721-3.317l38-38a3.1,3.1,0,0,0,.877-1.754l2.723-19.059,6.471,8.628Z" transform="translate(0 0)" fill="#cb652b"/>
  </g>
</svg>
