<svg xmlns="http://www.w3.org/2000/svg" width="50.254" height="42.799" viewBox="0 0 50.254 42.799">
  <g id="scooter" transform="translate(0 -37.976)">
    <path id="Path_527" data-name="Path 527" d="M48.758,108.6a1.47,1.47,0,0,0,1.39-1.468,7.569,7.569,0,0,0-7.742-7.555H40.971l-1.754-8.324a4.778,4.778,0,0,0-1.893-9.163H30.541a1.471,1.471,0,0,0-1.471,1.472v1.833H25.455a1.472,1.472,0,0,0,0,2.945H29.07v1.833a1.471,1.471,0,0,0,1.471,1.472h.653a8.229,8.229,0,0,0-1.954,5.33v8.378a.078.078,0,0,1-.078.078h-5.94a.078.078,0,0,1-.075-.056l-1.6-5.418a3.032,3.032,0,0,0,2.244-2.925A6.03,6.03,0,0,0,17.771,91H4.522a4.527,4.527,0,0,0-.63,9.009,11.365,11.365,0,0,0-3.8,8.485v4.584a1.471,1.471,0,0,0,1.471,1.472H2.836a7.465,7.465,0,0,0,14.642,0H35.466A7.467,7.467,0,1,0,48.758,108.6Zm-1.792-2.94h-3.31a7.381,7.381,0,0,0-2.407.108v-3.246h1.157a4.73,4.73,0,0,1,4.56,3.139ZM32.011,85.029h5.313a1.833,1.833,0,0,1,0,3.667H32.011Zm-8.789,23.342h5.94a3.024,3.024,0,0,0,3.019-3.022V96.971a5.324,5.324,0,0,1,4.144-5.187l1.983,9.414v5.9a7.49,7.49,0,0,0-2.842,4.506H20.846a10.5,10.5,0,0,0-10.493-9.235,10.084,10.084,0,0,0-6.327,2.156,8.435,8.435,0,0,1,7.438-4.473H18.51l1.818,6.151a3.036,3.036,0,0,0,2.894,2.165ZM3.153,111.606A7.765,7.765,0,0,1,5.1,107.532a7.087,7.087,0,0,1,5.25-2.216,7.579,7.579,0,0,1,7.515,6.29H3.153Zm1.368-14.5a1.583,1.583,0,0,1,0-3.165H17.771a3.084,3.084,0,0,1,3.078,3.082c-.013.061-.11.1-.29.083H4.522Zm5.635,20.5a4.533,4.533,0,0,1-4.28-3.059h8.559A4.533,4.533,0,0,1,10.157,117.61Zm32.63,0a4.532,4.532,0,1,1,4.526-4.532A4.534,4.534,0,0,1,42.787,117.61Z" transform="translate(0 -39.78)"/>
    <ellipse id="Ellipse_62" data-name="Ellipse 62" cx="1.48" cy="1.482" rx="1.48" ry="1.482" transform="translate(41.307 71.817)" fill="#cb652b"/>
    <path id="Path_528" data-name="Path 528" d="M2.1,102.388H15.287a1.472,1.472,0,0,0,0-2.945H2.1a1.472,1.472,0,0,0,0,2.945Z" transform="translate(-0.566 -55.434)" fill="#cb652b"/>
    <path id="Path_529" data-name="Path 529" d="M51.871,40.921h13.3a1.472,1.472,0,0,0,0-2.945h-13.3a1.472,1.472,0,0,0,0,2.945Z" transform="translate(-45.453)" fill="#cb652b"/>
  </g>
</svg>
