<svg xmlns="http://www.w3.org/2000/svg" width="57.442" height="57.442" viewBox="0 0 57.442 57.442">
  <g id="profile" transform="translate(-1 -1)">
    <path id="Path_572" data-name="Path 572" d="M33.111,57.442h-6.78a1.6,1.6,0,0,1-1.55-1.258l-.734-3.665a23.347,23.347,0,0,1-6.43-2.671l-3.108,2.066a1.584,1.584,0,0,1-1.988-.185l-4.793-4.8a1.59,1.59,0,0,1-.184-2.009L9.6,41.831A23.132,23.132,0,0,1,6.935,35.4l-3.668-.733A1.6,1.6,0,0,1,2,33.111v-6.78a1.6,1.6,0,0,1,1.258-1.55l3.672-.737A23.152,23.152,0,0,1,9.6,17.611l-2.07-3.1a1.584,1.584,0,0,1,.185-1.99l4.8-4.8a1.589,1.589,0,0,1,2.009-.187L17.61,9.6a23.333,23.333,0,0,1,6.435-2.675l.733-3.659A1.6,1.6,0,0,1,26.331,2h6.78a1.6,1.6,0,0,1,1.55,1.258L35.4,6.922A23.192,23.192,0,0,1,41.839,9.6l3.089-2.071a1.579,1.579,0,0,1,1.99.185l4.8,4.8a1.584,1.584,0,0,1,.187,2.009l-2.059,3.1a23.308,23.308,0,0,1,2.671,6.429l3.652.733a1.6,1.6,0,0,1,1.274,1.552v6.78a1.6,1.6,0,0,1-1.258,1.55L52.52,35.4a23.308,23.308,0,0,1-2.671,6.429l2.067,3.108a1.584,1.584,0,0,1-.186,1.988l-4.8,4.8a1.591,1.591,0,0,1-2.009.187l-3.089-2.065a23.192,23.192,0,0,1-6.44,2.676l-.729,3.655A1.6,1.6,0,0,1,33.111,57.442ZM17.6,48.115a.782.782,0,0,1,.419.12A21.754,21.754,0,0,0,24.9,51.093a.792.792,0,0,1,.6.618l.829,4.147H33.1l.838-4.147a.792.792,0,0,1,.6-.618,21.607,21.607,0,0,0,6.876-2.858.819.819,0,0,1,.871.01L45.808,50.6,50.6,45.81l-2.31-3.465a.775.775,0,0,1-.079-.116.792.792,0,0,1,.021-.805,21.733,21.733,0,0,0,2.858-6.879.792.792,0,0,1,.618-.6l4.152-.832V26.331L51.711,25.5a.792.792,0,0,1-.618-.6,21.733,21.733,0,0,0-2.858-6.879.792.792,0,0,1-.025-.805.764.764,0,0,1,.1-.141l2.287-3.44L45.809,8.841,42.3,11.2a.819.819,0,0,1-.871.01,21.607,21.607,0,0,0-6.876-2.858.792.792,0,0,1-.6-.618L33.11,3.584H26.331L25.5,7.731a.792.792,0,0,1-.6.618,21.754,21.754,0,0,0-6.879,2.858.792.792,0,0,1-.863-.01L13.632,8.845,8.841,13.633,11.2,17.156a.792.792,0,0,1,.01.863A21.6,21.6,0,0,0,8.356,24.9a.792.792,0,0,1-.665.613l-4.107.824v6.779l4.134.828a.8.8,0,0,1,.639.607,21.605,21.605,0,0,0,2.851,6.876.792.792,0,0,1-.01.863L8.854,45.81l4.78,4.793L17.1,48.291a.8.8,0,0,1,.5-.177Z" fill="#fff" stroke="#fff" stroke-width="2"/>
    <path id="Path_573" data-name="Path 573" d="M54.512,28.447a.792.792,0,0,1-.718-.456,14.6,14.6,0,0,0-1.157-2.012.792.792,0,1,1,1.308-.893,16,16,0,0,1,1.282,2.237.792.792,0,0,1-.381,1.053.779.779,0,0,1-.335.072Z" transform="translate(-10.502 -4.729)" fill="#fff" stroke="#fff" stroke-width="2"/>
    <path id="Path_574" data-name="Path 574" d="M32.639,49.248a16.609,16.609,0,0,1,0-33.218,13.065,13.065,0,0,1,1.305.059.792.792,0,0,1,.718.827.8.8,0,0,1-.871.749c-.353-.035-.729-.051-1.149-.051A15.029,15.029,0,1,0,47.664,32.639a13.528,13.528,0,0,0-.126-1.907.792.792,0,1,1,1.567-.227,14.936,14.936,0,0,1,.143,2.133A16.6,16.6,0,0,1,32.639,49.248Z" transform="translate(-2.918 -2.918)" fill="#fff" stroke="#fff" stroke-width="2"/>
    <path id="Path_575" data-name="Path 575" d="M47.831,20.993a.782.782,0,0,1-.468-.158,12.78,12.78,0,0,0-1.9-1.148.792.792,0,1,1,.7-1.42A14.281,14.281,0,0,1,48.3,19.559a.792.792,0,0,1-.47,1.426Z" transform="translate(-8.947 -3.366)" fill="#fff" stroke="#fff" stroke-width="2"/>
  </g>
</svg>
