<svg xmlns="http://www.w3.org/2000/svg" width="72.422" height="82.4" viewBox="0 0 72.422 82.4">
  <path id="sharing" d="M88.937,53.431a14.434,14.434,0,0,0-10.024,4.04l-15.491-9.6a16.885,16.885,0,0,0,0-13.347l15.491-9.6a14.454,14.454,0,1,0-2.889-3.89L60.9,30.412a16.9,16.9,0,1,0,0,21.575L76.023,61.36a14.483,14.483,0,1,0,12.914-7.929Zm0-48.6a9.656,9.656,0,1,1-9.656,9.656A9.667,9.667,0,0,1,88.937,4.828ZM47.9,53.27A12.07,12.07,0,1,1,59.969,41.2,12.084,12.084,0,0,1,47.9,53.27Zm41.039,24.3a9.656,9.656,0,1,1,9.656-9.656A9.667,9.667,0,0,1,88.937,77.572Z" transform="translate(-31)" fill="#fffaf6"/>
</svg>
