<svg xmlns="http://www.w3.org/2000/svg" width="165.442" height="208.66" viewBox="0 0 165.442 208.66">
  <g id="shopping-bag" style="isolation: isolate">
    <g id="Group_53" data-name="Group 53" transform="translate(0 41.164)">
      <g id="Group_52" data-name="Group 52">
        <path id="Path_169" data-name="Path 169" d="M218.366,231.909l-9.317-117.416a14.672,14.672,0,0,0-14.564-13.489H176.078v27.271a6.111,6.111,0,0,1-12.222,0V101.005h-56.22v27.271a6.111,6.111,0,0,1-12.222,0V101.005H77.007a14.67,14.67,0,0,0-14.564,13.472L53.122,231.926A33.978,33.978,0,0,0,87,268.5h97.5a33.974,33.974,0,0,0,33.871-36.592Zm-55.088-59.794-31.606,31.606a6.108,6.108,0,0,1-8.645,0l-14.813-14.813a6.11,6.11,0,0,1,8.641-8.641l10.494,10.49,27.287-27.287a6.111,6.111,0,1,1,8.641,8.645Z" transform="translate(-53.023 -101.005)" fill="#cb652b"/>
      </g>
    </g>
    <g id="Group_55" data-name="Group 55" transform="translate(42.39)">
      <g id="Group_54" data-name="Group 54">
        <path id="Path_170" data-name="Path 170" d="M197.371,0a40.38,40.38,0,0,0-40.332,40.336v.827h12.222v-.827a28.11,28.11,0,1,1,56.221,0v.827H237.7v-.827A40.381,40.381,0,0,0,197.371,0Z" transform="translate(-157.039)" fill="#cb652b"/>
      </g>
    </g>
  </g>
</svg>
