<svg id="tray" xmlns="http://www.w3.org/2000/svg" width="203.307" height="203.308" viewBox="0 0 203.307 203.308">
  <g id="Group_12" data-name="Group 12" transform="translate(33.885 125.37)">
    <g id="Group_11" data-name="Group 11">
      <path id="Path_33" data-name="Path 33" d="M232.661,323.14c-.2-.329-.4-.644-.61-.922a13.206,13.206,0,0,0-18.43-3.043l-37.883,27.05H136.161a3.388,3.388,0,1,1,0-6.777h22.025a11.873,11.873,0,0,0,11.86-11.86c0-.037,0-.349-.007-.383a11.9,11.9,0,0,0-12.124-11.477h-44.08a17,17,0,0,0-10.711,3.934l-16.57,13.791a3.4,3.4,0,0,0-1.22,2.606v40.662a3.387,3.387,0,0,0,3.388,3.388h84.071a23.773,23.773,0,0,0,15.1-5.452l41.078-33.942A13.317,13.317,0,0,0,232.661,323.14Zm-7.81,12.205-41.275,34.091a17,17,0,0,1-10.786,3.9H92.111V337.649l15.353-12.781a10.193,10.193,0,0,1,6.4-2.362l44.158,0a5.177,5.177,0,0,1,5.245,5.086,5.089,5.089,0,0,1-5.083,5.083H136.161a10.165,10.165,0,1,0,0,20.331h40.662a3.433,3.433,0,0,0,1.975-.63l38.771-27.687a6.431,6.431,0,0,1,9,1.5c.1.139.193.281.281.427A6.579,6.579,0,0,1,224.85,335.345Z" transform="translate(-85.334 -315.726)" fill="#cb652b"/>
    </g>
  </g>
  <g id="Group_14" data-name="Group 14" transform="translate(0 138.927)">
    <g id="Group_13" data-name="Group 13">
      <path id="Path_34" data-name="Path 34" d="M37.172,349.867H0v6.777H33.783v50.827H0v6.777H37.172a3.387,3.387,0,0,0,3.388-3.388v-57.6A3.387,3.387,0,0,0,37.172,349.867Z" transform="translate(0 -349.867)" fill="#cb652b"/>
    </g>
  </g>
  <g id="Group_16" data-name="Group 16" transform="translate(6.777 169.423)">
    <g id="Group_15" data-name="Group 15">
      <path id="Path_35" data-name="Path 35" d="M27.232,426.667A10.165,10.165,0,1,0,37.4,436.832,10.178,10.178,0,0,0,27.232,426.667Zm0,13.554a3.388,3.388,0,1,1,3.388-3.388A3.392,3.392,0,0,1,27.232,440.221Z" transform="translate(-17.067 -426.667)" fill="#cb652b"/>
    </g>
  </g>
  <g id="Group_18" data-name="Group 18" transform="translate(0 105.042)">
    <g id="Group_17" data-name="Group 17">
      <path id="Path_36" data-name="Path 36" d="M199.919,264.533H3.388A3.387,3.387,0,0,0,0,267.921,23.747,23.747,0,0,0,23.719,291.64H179.588a23.749,23.749,0,0,0,23.719-23.719A3.385,3.385,0,0,0,199.919,264.533Zm-20.331,20.331H23.719a16.969,16.969,0,0,1-16.6-13.554H196.188A16.968,16.968,0,0,1,179.589,284.864Z" transform="translate(0 -264.533)" fill="#cb652b"/>
    </g>
  </g>
  <g id="Group_20" data-name="Group 20" transform="translate(13.554 16.942)">
    <g id="Group_19" data-name="Group 19">
      <path id="Path_37" data-name="Path 37" d="M122.233,42.667a88.2,88.2,0,0,0-88.1,88.1v3.388a3.387,3.387,0,0,0,3.388,3.388H206.945a3.385,3.385,0,0,0,3.388-3.388v-3.388A88.2,88.2,0,0,0,122.233,42.667Zm-81.323,88.1a81.323,81.323,0,1,1,162.646,0Z" transform="translate(-34.133 -42.667)" fill="#cb652b"/>
    </g>
  </g>
  <g id="Group_22" data-name="Group 22" transform="translate(39.394 55.594)">
    <g id="Group_21" data-name="Group 21">
      <path id="Path_38" data-name="Path 38" d="M105.735,140.006a75.741,75.741,0,0,0-6.526,8.475l5.649,3.744a69.25,69.25,0,0,1,5.943-7.719Z" transform="translate(-99.209 -140.006)" fill="#f67b08"/>
    </g>
  </g>
  <g id="Group_24" data-name="Group 24" transform="translate(50.641 30.496)">
    <g id="Group_23" data-name="Group 23">
      <path id="Path_39" data-name="Path 39" d="M178.544,76.8a74.278,74.278,0,0,0-51.013,20.236l4.642,4.937a67.516,67.516,0,0,1,46.374-18.4Z" transform="translate(-127.531 -76.8)" fill="#f67b08"/>
    </g>
  </g>
  <g id="Group_26" data-name="Group 26" transform="translate(91.488)">
    <g id="Group_25" data-name="Group 25">
      <rect id="Rectangle_4" data-name="Rectangle 4" width="20.331" height="6.777" fill="#cb652b"/>
    </g>
  </g>
  <g id="Group_28" data-name="Group 28" transform="translate(98.266 3.388)">
    <g id="Group_27" data-name="Group 27">
      <rect id="Rectangle_5" data-name="Rectangle 5" width="6.777" height="16.942" fill="#cb652b"/>
    </g>
  </g>
</svg>
