<svg xmlns="http://www.w3.org/2000/svg" width="50.723" height="32.329" viewBox="0 0 50.723 32.329">
  <g id="view" transform="translate(0 -92.835)">
    <g id="Group_439" data-name="Group 439" transform="translate(0 92.835)">
      <g id="Group_438" data-name="Group 438" transform="translate(0 0)">
        <path id="Path_932" data-name="Path 932" d="M50.4,108.013c-.453-.62-11.25-15.178-25.039-15.178S.775,107.393.322,108.012a1.674,1.674,0,0,0,0,1.974c.453.62,11.25,15.178,25.039,15.178S49.948,110.606,50.4,109.987A1.672,1.672,0,0,0,50.4,108.013ZM25.361,121.82C15.2,121.82,6.406,112.157,3.8,109c2.6-3.162,11.38-12.819,21.559-12.819,10.157,0,18.954,9.661,21.559,12.821C44.32,112.162,35.541,121.82,25.361,121.82Z" transform="translate(0 -92.835)"/>
      </g>
    </g>
    <g id="Group_441" data-name="Group 441" transform="translate(15.328 98.966)">
      <g id="Group_440" data-name="Group 440" transform="translate(0 0)">
        <path id="Path_933" data-name="Path 933" d="M164.755,154.725a10.033,10.033,0,1,0,10.033,10.033A10.045,10.045,0,0,0,164.755,154.725Zm0,16.722a6.689,6.689,0,1,1,6.689-6.689A6.7,6.7,0,0,1,164.755,171.447Z" transform="translate(-154.722 -154.725)"/>
      </g>
    </g>
  </g>
</svg>
