<svg xmlns="http://www.w3.org/2000/svg" width="79.136" height="62.054" viewBox="0 0 79.136 62.054">
  <g id="preorder" transform="translate(15.426 -29.426)">
    <g id="Group_268" data-name="Group 268" transform="translate(-15.426 29.426)">
      <path id="Path_783" data-name="Path 783" d="M17.537,76.9V74.731a4.169,4.169,0,0,0,3.209-1.1c1.31-1.348,1.878-5.991-4.606-5.145a1.072,1.072,0,0,0-.93,1.063V76.9a1.168,1.168,0,0,0,2.327,0Zm0-6.406c.919-.049,1.7.062,1.7.981,0,.961-.738,1.176-1.7,1.133Z" transform="translate(-11.144 -56.124)" fill="#cb652b"/>
      <path id="Path_784" data-name="Path 784" d="M225.593,73.395a2.763,2.763,0,0,0,1.042-2.2c0-1.769-1.268-3.352-5.436-2.761a1.074,1.074,0,0,0-.917,1.061v7.346a1.167,1.167,0,0,0,2.327,0V74.331c1.666,0,1.1.572,1.865,2.852a1.207,1.207,0,0,0,2.052.3c.4-.534.174-.8-.251-2.61A3.422,3.422,0,0,0,225.593,73.395Zm-2.983-1.133V70.417c.892-.059,1.7.039,1.7.9C224.308,72.232,223.431,72.262,222.61,72.262Z" transform="translate(-151.668 -56.071)" fill="#cb652b"/>
      <path id="Path_785" data-name="Path 785" d="M150.154,72.69a2.838,2.838,0,0,0,.185-4.235c-1.105-1-3.108-.932-4.578-.724a1.074,1.074,0,0,0-.917,1.061v7.346a1.167,1.167,0,0,0,2.327,0V73.626c.838,0,1.172-.032,1.42,1.117.194.859.331,1.393.445,1.734.432,1.294,2.634.754,2.219-.642C150.826,74.389,150.829,73.48,150.154,72.69Zm-2.983-1.133V69.712c.88-.059,1.7.034,1.7.9C148.869,71.628,147.725,71.557,147.171,71.557Z" transform="translate(-99.974 -55.587)" fill="#cb652b"/>
      <path id="Path_786" data-name="Path 786" d="M44.486,76.77c-.426-1.441-.427-2.355-1.1-3.145a2.839,2.839,0,0,0,.185-4.235c-1.106-1-3.108-.932-4.579-.723a1.074,1.074,0,0,0-.916,1.061v7.346a1.168,1.168,0,0,0,2.327,0V74.56c1.665,0,1.1.569,1.865,2.851.429,1.293,2.639.77,2.219-.641ZM40.4,72.491V70.647c.88-.059,1.7.034,1.7.9C42.1,72.462,41.223,72.491,40.4,72.491Z" transform="translate(-26.812 -56.227)" fill="#cb652b"/>
      <path id="Path_787" data-name="Path 787" d="M202.282,75.119H199.77V73.4h2.144a1.071,1.071,0,0,0,0-2.143H199.77V69.9H202.1a1.078,1.078,0,0,0,0-2.155h-3.584a1.073,1.073,0,0,0-1.071,1.071V76.2a1.073,1.073,0,0,0,1.071,1.071h3.768a1.077,1.077,0,0,0,0-2.155Z" transform="translate(-136.017 -55.682)" fill="#cb652b"/>
      <path id="Path_788" data-name="Path 788" d="M68.337,76.054H65.825V74.331h2.144a1.071,1.071,0,0,0,0-2.143H65.825V70.833h2.328a1.078,1.078,0,0,0,0-2.155H64.569A1.072,1.072,0,0,0,63.5,69.749v7.388a1.072,1.072,0,0,0,1.071,1.071h3.768A1.078,1.078,0,0,0,68.337,76.054Z" transform="translate(-44.233 -56.323)" fill="#cb652b"/>
      <path id="Path_789" data-name="Path 789" d="M118.583,67.314c-2.632,0-4.471,2.046-4.471,4.974,0,2.842,1.788,4.827,4.348,4.827,2.225,0,4.471-1.542,4.471-4.987C122.932,69.294,121.143,67.314,118.583,67.314Zm-.061,7.671c-1.381,0-2.009-1.41-2.009-2.721s.529-2.819,2.021-2.819c1.381,0,2.009,1.417,2.009,2.733C120.543,73.575,119.918,74.985,118.522,74.985Z" transform="translate(-78.915 -55.388)" fill="#cb652b"/>
      <path id="Path_790" data-name="Path 790" d="M169.887,68.356a1.075,1.075,0,0,0-.941,1.064v7.35a1.064,1.064,0,0,0,.981,1.068c1.984.165,4.274.1,5.686-1.311,1.744-1.717,1.95-5.318.012-7.095C174.183,68.088,171.863,68.109,169.887,68.356Zm1.386,7.418v-5.41c2.038-.178,3.356.5,3.343,2.536C174.616,75.1,173.4,75.85,171.273,75.774Z" transform="translate(-116.49 -56.013)" fill="#cb652b"/>
      <path id="Path_791" data-name="Path 791" d="M93.147,79.819H89.641a1.259,1.259,0,0,0,0,2.518h3.506a1.259,1.259,0,1,0,0-2.518Z" transform="translate(-61.284 -63.957)" fill="#cb652b"/>
      <path id="Path_792" data-name="Path 792" d="M124.268,151.021a2.98,2.98,0,0,0-1.511-3.815v-4.977a1.259,1.259,0,1,0-2.518,0v4.978a2.984,2.984,0,0,0,2.193,5.539c4.955,4.955,4.782,4.968,5.489,4.968a1.261,1.261,0,0,0,.89-2.149Z" transform="translate(-81.93 -105.861)" fill="#cb652b"/>
      <path id="Path_793" data-name="Path 793" d="M25.488,111.518h-8.5a1.259,1.259,0,1,0,0,2.518h8.5a1.259,1.259,0,1,0,0-2.518Z" transform="translate(-11.501 -85.679)" fill="#cb652b"/>
      <path id="Path_794" data-name="Path 794" d="M63.074,111.518H58.99a1.259,1.259,0,1,0,0,2.518h4.084a1.259,1.259,0,1,0,0-2.518Z" transform="translate(-40.281 -85.679)" fill="#cb652b"/>
      <path id="Path_795" data-name="Path 795" d="M78.415,29.426H5.3a3.016,3.016,0,0,0-3.012,3.012V60.257A3.016,3.016,0,0,0,5.3,63.269H27.04a18,18,0,1,0,29.638,0H78.415a3.016,3.016,0,0,0,3.012-3.012V32.438A3.016,3.016,0,0,0,78.415,29.426ZM57.289,72.217H55.058a1.259,1.259,0,1,0,0,2.518h2.231A15.5,15.5,0,0,1,43.118,88.906V86.676a1.259,1.259,0,1,0-2.518,0v2.231A15.5,15.5,0,0,1,26.429,74.735H28.66a1.259,1.259,0,1,0,0-2.518H26.429A15.5,15.5,0,0,1,40.6,58.046v2.231a1.259,1.259,0,0,0,2.518,0V58.046A15.5,15.5,0,0,1,57.289,72.217Zm21.62-11.961a.5.5,0,0,1-.494.494H54.582a17.973,17.973,0,0,0-25.446,0H5.3a.5.5,0,0,1-.494-.494V32.438a.5.5,0,0,1,.494-.494H78.415a.5.5,0,0,1,.494.494Z" transform="translate(-2.291 -29.426)" fill="#cb652b"/>
    </g>
  </g>
</svg>
