<svg xmlns="http://www.w3.org/2000/svg" xmlns:xlink="http://www.w3.org/1999/xlink" width="559" height="570" viewBox="0 0 559 570">
  <defs>
    <radialGradient id="radial-gradient" cx="0.5" cy="0.5" r="0.5" gradientUnits="objectBoundingBox">
      <stop offset="0" stop-color="#ff9e48"/>
      <stop offset="1" stop-color="#cc652b"/>
    </radialGradient>
  </defs>
  <ellipse id="Ellipse_138" data-name="Ellipse 138" cx="279.5" cy="285" rx="279.5" ry="285" fill="url(#radial-gradient)"/>
  <g id="Group_950" data-name="Group 950" transform="translate(-286.604 -1084.947)">
    <g data-type="innerShadowGroup">
      <path id="serving-dish_2_" data-name="serving-dish (2)" d="M325.207,159.438H313.415a142.426,142.426,0,0,0-13.029-51.5,4.969,4.969,0,1,0-9.014,4.186,132.568,132.568,0,0,1,12.083,47.317H75.834a4.968,4.968,0,1,0,0,9.937H325.207a4.562,4.562,0,0,1,4.556,4.559V180a4.562,4.562,0,0,1-4.556,4.559H14.5A4.562,4.562,0,0,1,9.939,180v-6.065a4.562,4.562,0,0,1,4.556-4.559H52.671a4.968,4.968,0,1,0,0-9.937H36.248A133.9,133.9,0,0,1,160.912,34.843a.382.382,0,0,0,.054,0q2.029-.132,4.012-.2c.264-.008.526-.021.79-.029.472-.016.941-.026,1.4-.036.892-.016,1.783-.031,2.677-.031,1.187,0,2.374.023,3.558.054l1.05.031c.912.031,1.822.078,2.732.127.482.026.964.052,1.449.083A134.007,134.007,0,0,1,280.327,92.753a4.969,4.969,0,0,0,8.192-5.627,143.957,143.957,0,0,0-98.3-61.059,24.193,24.193,0,0,0,3.869-13.117c0-2.7-1.205-7.679-9.276-10.649a49.811,49.811,0,0,0-29.932,0c-8.071,2.97-9.273,7.949-9.273,10.649a24.225,24.225,0,0,0,3.849,13.088,143.883,143.883,0,0,0-123.172,133.4H14.5A14.516,14.516,0,0,0,0,173.934V180a14.512,14.512,0,0,0,14.5,14.5H68.028a61.573,61.573,0,0,0-7.63,6.161l-.1.093a4.5,4.5,0,0,0-.43.459L36.277,229.858a13.7,13.7,0,0,0-18.7,3.88L8.3,247.419a13.746,13.746,0,0,0,3.649,19.057l63.49,43.132a13.633,13.633,0,0,0,7.684,2.377,13.948,13.948,0,0,0,2.61-.249,13.627,13.627,0,0,0,8.778-5.78l9.278-13.682a13.746,13.746,0,0,0-3.647-19.057l-.363-.246A32.126,32.126,0,0,1,116.5,262.879c13.506-3.128,29.4-1.114,40.177.671a94.923,94.923,0,0,0,40.5-2.182l18.3-5.056a94.2,94.2,0,0,0,33.343-16.864c.075-.06.148-.119.22-.184l31.414-27.822c5.355-4.1,6.521-11.194,4.673-16.945h40.084A14.512,14.512,0,0,0,339.7,180v-6.067a14.512,14.512,0,0,0-14.5-14.5ZM169.852,9.94c8.369,0,13.384,2.071,14.3,3.222a14.307,14.307,0,0,1-6.332,11.671c-.977-.052-1.941-.093-2.9-.13-.324-.01-.648-.026-.972-.034-1.387-.041-2.755-.062-4.095-.062-.951,0-1.92.013-2.9.034-.472.008-.946.021-1.42.036-.565.018-1.135.036-1.705.06-.651.029-1.3.057-1.949.093a14.3,14.3,0,0,1-6.329-11.668c.917-1.151,5.932-3.222,14.3-3.222Zm35.636,186.954a16.392,16.392,0,0,0-1.314-2.4h47.664l-20.609,13.64-29.377,8.5-1,.023a16.9,16.9,0,0,0,4.634-19.765ZM151.6,194.5l-7.171,1.5-5.544-1.5ZM95.56,286.7l-9.276,13.682a3.785,3.785,0,0,1-5.264,1.008l-63.49-43.132A3.789,3.789,0,0,1,16.525,253L25.8,239.315a3.752,3.752,0,0,1,2.421-1.594,3.791,3.791,0,0,1,.721-.07,3.751,3.751,0,0,1,2.12.658l3.429,2.327a0,0,0,0,0,0,0l60.058,40.8A3.792,3.792,0,0,1,95.56,286.7Zm178.793-83.1a4.351,4.351,0,0,0-.345.277L242.56,231.727a84.33,84.33,0,0,1-29.732,15l-18.3,5.056a84.844,84.844,0,0,1-36.23,1.959c-11.616-1.923-28.815-4.077-44.046-.549a42.211,42.211,0,0,0-22.737,14.161l-46.97-31.907,22.8-27.685c8.623-8.141,19.557-12.974,30.028-13.27h.2c3.247-.054,6.684.9,10.32,1.92.731.2,1.459.407,2.19.6l32.9,8.877a4.969,4.969,0,0,0,2.309.065l43.1-8.986a7.409,7.409,0,0,1,5.632,1.094,6.671,6.671,0,0,1,2.369,2.83,6.953,6.953,0,0,1-3.216,8.986l-14.7,7.786a4.969,4.969,0,0,0,2.434,9.359l21.809-.472a5.01,5.01,0,0,0,1.273-.194l30.73-8.89a4.978,4.978,0,0,0,1.363-.63l31-20.521c2.6-1.607,6.065-2.929,7.907-.21,1.436,2.115,1.47,5.922-.64,7.48Zm0,0" transform="translate(392.648 1249.238)" fill="#fafafa"/>
      <path id="serving-dish_2_2" data-name="serving-dish (2)" d="M325.207,159.438H313.415a142.426,142.426,0,0,0-13.029-51.5,4.969,4.969,0,1,0-9.014,4.186,132.568,132.568,0,0,1,12.083,47.317H75.834a4.968,4.968,0,1,0,0,9.937H325.207a4.562,4.562,0,0,1,4.556,4.559V180a4.562,4.562,0,0,1-4.556,4.559H14.5A4.562,4.562,0,0,1,9.939,180v-6.065a4.562,4.562,0,0,1,4.556-4.559H52.671a4.968,4.968,0,1,0,0-9.937H36.248A133.9,133.9,0,0,1,160.912,34.843a.382.382,0,0,0,.054,0q2.029-.132,4.012-.2c.264-.008.526-.021.79-.029.472-.016.941-.026,1.4-.036.892-.016,1.783-.031,2.677-.031,1.187,0,2.374.023,3.558.054l1.05.031c.912.031,1.822.078,2.732.127.482.026.964.052,1.449.083A134.007,134.007,0,0,1,280.327,92.753a4.969,4.969,0,0,0,8.192-5.627,143.957,143.957,0,0,0-98.3-61.059,24.193,24.193,0,0,0,3.869-13.117c0-2.7-1.205-7.679-9.276-10.649a49.811,49.811,0,0,0-29.932,0c-8.071,2.97-9.273,7.949-9.273,10.649a24.225,24.225,0,0,0,3.849,13.088,143.883,143.883,0,0,0-123.172,133.4H14.5A14.516,14.516,0,0,0,0,173.934V180a14.512,14.512,0,0,0,14.5,14.5H68.028a61.573,61.573,0,0,0-7.63,6.161l-.1.093a4.5,4.5,0,0,0-.43.459L36.277,229.858a13.7,13.7,0,0,0-18.7,3.88L8.3,247.419a13.746,13.746,0,0,0,3.649,19.057l63.49,43.132a13.633,13.633,0,0,0,7.684,2.377,13.948,13.948,0,0,0,2.61-.249,13.627,13.627,0,0,0,8.778-5.78l9.278-13.682a13.746,13.746,0,0,0-3.647-19.057l-.363-.246A32.126,32.126,0,0,1,116.5,262.879c13.506-3.128,29.4-1.114,40.177.671a94.923,94.923,0,0,0,40.5-2.182l18.3-5.056a94.2,94.2,0,0,0,33.343-16.864c.075-.06.148-.119.22-.184l31.414-27.822c5.355-4.1,6.521-11.194,4.673-16.945h40.084A14.512,14.512,0,0,0,339.7,180v-6.067a14.512,14.512,0,0,0-14.5-14.5ZM169.852,9.94c8.369,0,13.384,2.071,14.3,3.222a14.307,14.307,0,0,1-6.332,11.671c-.977-.052-1.941-.093-2.9-.13-.324-.01-.648-.026-.972-.034-1.387-.041-2.755-.062-4.095-.062-.951,0-1.92.013-2.9.034-.472.008-.946.021-1.42.036-.565.018-1.135.036-1.705.06-.651.029-1.3.057-1.949.093a14.3,14.3,0,0,1-6.329-11.668c.917-1.151,5.932-3.222,14.3-3.222Zm35.636,186.954a16.392,16.392,0,0,0-1.314-2.4h47.664l-20.609,13.64-29.377,8.5-1,.023a16.9,16.9,0,0,0,4.634-19.765ZM151.6,194.5l-7.171,1.5-5.544-1.5ZM95.56,286.7l-9.276,13.682a3.785,3.785,0,0,1-5.264,1.008l-63.49-43.132A3.789,3.789,0,0,1,16.525,253L25.8,239.315a3.752,3.752,0,0,1,2.421-1.594,3.791,3.791,0,0,1,.721-.07,3.751,3.751,0,0,1,2.12.658l3.429,2.327a0,0,0,0,0,0,0l60.058,40.8A3.792,3.792,0,0,1,95.56,286.7Zm178.793-83.1a4.351,4.351,0,0,0-.345.277L242.56,231.727a84.33,84.33,0,0,1-29.732,15l-18.3,5.056a84.844,84.844,0,0,1-36.23,1.959c-11.616-1.923-28.815-4.077-44.046-.549a42.211,42.211,0,0,0-22.737,14.161l-46.97-31.907,22.8-27.685c8.623-8.141,19.557-12.974,30.028-13.27h.2c3.247-.054,6.684.9,10.32,1.92.731.2,1.459.407,2.19.6l32.9,8.877a4.969,4.969,0,0,0,2.309.065l43.1-8.986a7.409,7.409,0,0,1,5.632,1.094,6.671,6.671,0,0,1,2.369,2.83,6.953,6.953,0,0,1-3.216,8.986l-14.7,7.786a4.969,4.969,0,0,0,2.434,9.359l21.809-.472a5.01,5.01,0,0,0,1.273-.194l30.73-8.89a4.978,4.978,0,0,0,1.363-.63l31-20.521c2.6-1.607,6.065-2.929,7.907-.21,1.436,2.115,1.47,5.922-.64,7.48Zm0,0" transform="translate(392.648 1249.238)" fill="#fff"/>
    </g>
    <path id="Path_1886" data-name="Path 1886" d="M-22402.645,17757.82c-20.447,35.883-5.109,71.018-5.109,71.018l-17.041,22.428s22.154,5.98-4.26,25.416" transform="translate(23129 -16570.873)" fill="none" stroke="#fff" stroke-width="2"/>
    <path id="Path_1887" data-name="Path 1887" d="M-22402.645,17757.82c-20.447,35.883-5.109,71.018-5.109,71.018l-17.041,22.428s22.154,5.98-4.26,25.416" transform="translate(23142.205 -16526.873)" fill="none" stroke="#fff" stroke-width="2"/>
    <path id="Path_1888" data-name="Path 1888" d="M-22402.645,17757.82c-20.447,35.883-5.109,71.018-5.109,71.018l-17.041,22.428s22.154,5.98-4.26,25.416" transform="translate(23102.59 -16578.873)" fill="none" stroke="#fff" stroke-width="2"/>
  </g>
</svg>
