<svg xmlns="http://www.w3.org/2000/svg" width="62.903" height="83.606" viewBox="0 0 62.903 83.606">
  <g id="bookmark" transform="translate(-2.5 0.5)">
    <path id="Path_936" data-name="Path 936" d="M64.9,76.592V9.306A9.293,9.293,0,0,0,55.649,0H12.255A9.293,9.293,0,0,0,3,9.306V76.588a5.915,5.915,0,0,0,9.337,4.849L33.522,66.364a.744.744,0,0,1,.86,0L55.566,81.437A5.915,5.915,0,0,0,64.9,76.592Zm-5.159,0a.758.758,0,0,1-.42.7.71.71,0,0,1-.77-.058L37.37,62.161a5.9,5.9,0,0,0-6.837,0L9.349,77.235a.716.716,0,0,1-.77.058.763.763,0,0,1-.42-.7V9.306a4.128,4.128,0,0,1,4.1-4.148H55.645a4.126,4.126,0,0,1,4.1,4.148V76.592Z" transform="translate(0 0)" fill="#757575" stroke="#fff" stroke-width="1"/>
    <path id="Path_937" data-name="Path 937" d="M27.315,8.533l-.691.733-.691-.733a11.579,11.579,0,0,0-16.58,0,12.617,12.617,0,0,0,0,17.12l15.4,16.287a2.585,2.585,0,0,0,3.749,0l15.4-16.287a12.617,12.617,0,0,0,0-17.12,11.573,11.573,0,0,0-16.58,0ZM40.146,22.1,26.623,36.41,13.1,22.1a7.389,7.389,0,0,1,0-10.025,6.146,6.146,0,0,1,9.083,0l2.566,2.713a2.663,2.663,0,0,0,3.749,0l2.566-2.713a6.286,6.286,0,0,1,9.083,0A7.389,7.389,0,0,1,40.146,22.1Z" transform="translate(7.328 12.281)" fill="#757575" stroke="#fff" stroke-width="1"/>
  </g>
</svg>
