<svg xmlns="http://www.w3.org/2000/svg" width="62.903" height="83.606" viewBox="0 0 62.903 83.606">
  <g id="bookmark" transform="translate(-2.5 0.5)">
    <path id="Path_936" data-name="Path 936" d="M64.9,76.592V9.306A9.293,9.293,0,0,0,55.649,0H12.255A9.293,9.293,0,0,0,3,9.306V76.588a5.915,5.915,0,0,0,9.337,4.849L33.522,66.364a.744.744,0,0,1,.86,0L55.566,81.437A5.915,5.915,0,0,0,64.9,76.592Zm-5.159,0a.758.758,0,0,1-.42.7.71.71,0,0,1-.77-.058L37.37,62.161a5.9,5.9,0,0,0-6.837,0L9.349,77.235a.716.716,0,0,1-.77.058.763.763,0,0,1-.42-.7V9.306a4.128,4.128,0,0,1,4.1-4.148H55.645a4.126,4.126,0,0,1,4.1,4.148V76.592Z" transform="translate(0 0)" fill="#cb652b" stroke="#fff" stroke-width="1"/>
    <path id="Path_937" data-name="Path 937" d="M27.315,8.533l-.691.733-.691-.733a11.579,11.579,0,0,0-16.58,0,12.617,12.617,0,0,0,0,17.12l15.4,16.287a2.585,2.585,0,0,0,3.749,0l15.4-16.287a12.617,12.617,0,0,0,0-17.12,11.573,11.573,0,0,0-16.58,0ZM40.146,22.1,26.623,36.41,13.1,22.1a7.389,7.389,0,0,1,0-10.025,6.146,6.146,0,0,1,9.083,0l2.566,2.713a2.663,2.663,0,0,0,3.749,0l2.566-2.713a6.286,6.286,0,0,1,9.083,0A7.389,7.389,0,0,1,40.146,22.1Z" transform="translate(7.328 12.281)" fill="#cb652b" stroke="#fff" stroke-width="1"/>
    <g id="Path_938" data-name="Path 938" transform="translate(18.951 23.678)" fill="#cb652b">
      <path d="M 15.90442276000977 26.39681243896484 C 14.61117172241211 25.38022422790527 11.04740428924561 22.53382110595703 7.522538185119629 19.3167667388916 C 4.951558113098145 16.97030639648438 2.905597925186157 14.89030647277832 1.441507935523987 13.13455677032471 C -0.7644920349121094 10.48911666870117 -1.227542042732239 9.07762622833252 -1.227542042732239 8.359376907348633 C -1.227542042732239 7.00205659866333 -1.313642024993896 5.723696708679199 -1.389611959457397 4.595836639404297 C -1.566632032394409 1.967646598815918 -1.706452012062073 -0.1082534343004227 -0.6410419940948486 -1.247833490371704 C 0.1576379984617233 -2.102113485336304 1.648497939109802 -2.500003337860107 4.050777912139893 -2.500003337860107 C 6.011908054351807 -2.500003337860107 13.24115753173828 1.346666574478149 15.86121845245361 2.828856468200684 L 16.16193771362305 2.998966455459595 L 16.42741775512695 2.777856588363647 L 22.73946571350098 -2.479595184326172 C 24.4974308013916 -2.282185316085815 27.07297706604004 -1.933024525642395 27.43929862976074 -1.754543423652649 C 31.29341697692871 0.1877038925886154 31.17628288269043 7.492875099182129 31.15238952636719 8.268967628479004 C 30.99113655090332 8.744009971618652 29.93438529968262 11.76126575469971 28.08301734924316 14.91053676605225 C 26.9130973815918 16.90062713623047 25.65990829467773 18.55255699157715 24.35825729370117 19.8204174041748 C 22.76046752929688 21.37673568725586 21.08859825134277 22.35103607177734 19.38908767700195 22.71623611450195 C 17.64728546142578 23.09053611755371 16.41743850708008 25.2978572845459 15.90442276000977 26.39681243896484 Z" stroke="none"/>
      <path d="M 4.050777435302734 -2.000003814697266 C 1.827438354492188 -2.000003814697266 0.4121971130371094 -1.64227294921875 -0.2758121490478516 -0.9063625335693359 C -1.193002700805664 0.07468605041503906 -1.059612274169922 2.055027008056641 -0.8907413482666016 4.562227249145508 C -0.8142414093017578 5.697956085205078 -0.7275428771972656 6.985225677490234 -0.7275428771972656 8.359376907348633 C -0.7275428771972656 9.186226844787598 0.1087684631347656 11.87274646759033 7.855167388916016 18.94341659545898 C 10.99583625793457 21.81011772155762 14.16914939880371 24.38270950317383 15.72772693634033 25.6199836730957 C 16.38398361206055 24.37171173095703 17.59326553344727 22.59072875976562 19.28404808044434 22.22739601135254 C 22.98543739318848 21.4320068359375 25.87256813049316 17.68012619018555 27.64279747009277 14.67275619506836 C 29.40140914916992 11.68512153625488 30.43610572814941 8.812253952026367 30.65489196777344 8.178466796875 C 30.66680908203125 7.699134826660156 30.67830276489258 5.98628044128418 30.3199577331543 4.094575881958008 C 29.95448112487793 2.165288925170898 29.12206077575684 -0.3333873748779297 27.2319221496582 -1.299077987670898 C 26.83046722412109 -1.446649551391602 24.75966453552246 -1.745109558105469 22.8953914642334 -1.958744049072266 L 16.21645736694336 3.604255676269531 L 15.61503791809082 3.264045715332031 C 15.59136772155762 3.250656127929688 13.21695804595947 1.909536361694336 10.57125854492188 0.5879268646240234 C 5.895368576049805 -1.747833251953125 4.453607559204102 -2.000003814697266 4.050777435302734 -2.000003814697266 M 4.050777435302734 -3.000003814697266 C 6.573558807373047 -3.000003814697266 16.10741806030273 2.393667221069336 16.10741806030273 2.393667221069336 L 22.5830078125 -3.000003814697266 C 22.5830078125 -3.000003814697266 27.04840850830078 -2.511503219604492 27.66405868530273 -2.201173782348633 C 32.05270767211914 0.01043701171875 31.64941787719727 8.359376907348633 31.64941787719727 8.359376907348633 C 31.64941787719727 8.359376907348633 27.36523818969727 21.5136661529541 19.49413681030273 23.20507621765137 C 17.44765853881836 23.64484596252441 16.10741806030273 27.18945693969727 16.10741806030273 27.18945693969727 C 16.10741806030273 27.18945693969727 -1.727542877197266 13.4680061340332 -1.727542877197266 8.359376907348633 C -1.727542877197266 1.455816268920898 -3.957351684570312 -3.000003814697266 4.050777435302734 -3.000003814697266 Z" stroke="none" fill="#cb652b"/>
    </g>
  </g>
</svg>
