<svg xmlns="http://www.w3.org/2000/svg" width="32.81" height="43.804" viewBox="0 0 32.81 43.804">
  <g id="distance" transform="translate(0 -14.602)">
    <g id="Group_194" data-name="Group 194" transform="translate(0 14.602)">
      <g id="Group_193" data-name="Group 193">
        <path id="Path_499" data-name="Path 499" d="M72.2,234.667a8.2,8.2,0,1,0,8.2,8.2A8.211,8.211,0,0,0,72.2,234.667Zm0,13.671a5.468,5.468,0,1,1,5.468-5.468A5.474,5.474,0,0,1,72.2,248.338Z" transform="translate(-55.798 -226.465)"/>
        <path id="Path_504" data-name="Path 504" d="M16.4,214.413c4.314-4.6,16.4-17.9,16.4-27.342a16.231,16.231,0,0,0-16.4-16.4A16.231,16.231,0,0,0,0,187.072c0,12.209,14.835,26.371,15.466,26.968C15.729,214.289,16.876,214.6,16.4,214.413Zm0-3.295c-3.229-3.295-13.671-14.675-13.671-24.047A13.525,13.525,0,0,1,16.4,173.4a13.525,13.525,0,0,1,13.671,13.671C30.076,196.444,19.634,207.824,16.4,211.118Z" transform="translate(0 -170.667)"/>
      </g>
    </g>
  </g>
</svg>
