<svg xmlns="http://www.w3.org/2000/svg" width="59.48" height="46.642" viewBox="0 0 59.48 46.642">
  <g id="preorder" transform="translate(15.426 -23.19)">
    <g id="Group_268" data-name="Group 268" transform="translate(-15.426 23.19)">
      <path id="Path_783" data-name="Path 783" d="M16.959,74.787V73.155a3.134,3.134,0,0,0,2.412-.824c.985-1.014,1.411-4.5-3.462-3.867a.806.806,0,0,0-.7.8v5.525A.878.878,0,0,0,16.959,74.787Zm0-4.815c.691-.037,1.277.047,1.277.737,0,.722-.555.884-1.277.851Z" transform="translate(-12.154 -59.17)" fill="#cb652b"/>
      <path id="Path_784" data-name="Path 784" d="M224.274,72.132a2.077,2.077,0,0,0,.783-1.652c0-1.33-.953-2.519-4.085-2.076a.808.808,0,0,0-.689.8v5.521a.877.877,0,0,0,1.749,0V72.835c1.252,0,.83.43,1.4,2.144a.907.907,0,0,0,1.542.227c.3-.4.131-.6-.189-1.962A2.572,2.572,0,0,0,224.274,72.132Zm-2.242-.852V69.894c.67-.044,1.277.029,1.277.679C223.309,71.258,222.649,71.28,222.032,71.28Z" transform="translate(-168.71 -59.111)" fill="#cb652b"/>
      <path id="Path_785" data-name="Path 785" d="M148.835,71.427a2.133,2.133,0,0,0,.139-3.183c-.831-.752-2.336-.7-3.441-.544a.807.807,0,0,0-.689.8v5.522a.877.877,0,0,0,1.749,0V72.13c.63,0,.881-.024,1.067.84.146.645.249,1.047.335,1.3.325.973,1.98.566,1.668-.483C149.34,72.7,149.342,72.021,148.835,71.427Zm-2.242-.852V69.188c.662-.044,1.277.026,1.277.679C147.87,70.629,147.009,70.575,146.593,70.575Z" transform="translate(-111.119 -58.572)" fill="#cb652b"/>
      <path id="Path_786" data-name="Path 786" d="M42.894,74.725c-.321-1.083-.321-1.77-.828-2.364a2.134,2.134,0,0,0,.139-3.183c-.832-.752-2.336-.7-3.442-.544a.807.807,0,0,0-.689.8v5.522a.878.878,0,0,0,1.749,0V73.065c1.252,0,.829.428,1.4,2.143C41.548,76.179,43.209,75.786,42.894,74.725Zm-3.07-3.216V70.123c.662-.044,1.277.026,1.277.679C41.1,71.487,40.441,71.51,39.824,71.51Z" transform="translate(-29.609 -59.285)" fill="#cb652b"/>
      <path id="Path_787" data-name="Path 787" d="M201.08,73.287h-1.888v-1.3H200.8a.805.805,0,0,0,0-1.611h-1.612V69.363h1.75a.81.81,0,0,0,0-1.62h-2.694a.806.806,0,0,0-.805.805V74.1a.806.806,0,0,0,.805.805h2.832a.81.81,0,0,0,0-1.62Z" transform="translate(-151.274 -58.678)" fill="#cb652b"/>
      <path id="Path_788" data-name="Path 788" d="M67.135,74.222H65.247v-1.3h1.612a.805.805,0,0,0,0-1.611H65.247V70.3H67a.81.81,0,0,0,0-1.62H64.3a.806.806,0,0,0-.805.805v5.553a.806.806,0,0,0,.805.805h2.832A.81.81,0,0,0,67.135,74.222Z" transform="translate(-49.018 -59.392)" fill="#cb652b"/>
      <path id="Path_789" data-name="Path 789" d="M117.472,67.314c-1.979,0-3.36,1.538-3.36,3.739a3.312,3.312,0,0,0,3.268,3.628c1.673,0,3.361-1.159,3.361-3.748A3.306,3.306,0,0,0,117.472,67.314Zm-.046,5.766c-1.038,0-1.51-1.06-1.51-2.045s.4-2.119,1.519-2.119c1.038,0,1.51,1.065,1.51,2.054C118.946,72.02,118.476,73.08,117.426,73.08Z" transform="translate(-87.657 -58.35)" fill="#cb652b"/>
      <path id="Path_790" data-name="Path 790" d="M169.653,68.324a.808.808,0,0,0-.707.8v5.525a.8.8,0,0,0,.737.8c1.491.124,3.213.077,4.274-.985a3.943,3.943,0,0,0,.009-5.333C172.882,68.122,171.139,68.138,169.653,68.324ZM170.7,73.9V69.833c1.532-.134,2.522.374,2.513,1.906C173.208,73.392,172.295,73.956,170.7,73.9Z" transform="translate(-129.519 -59.046)" fill="#cb652b"/>
      <path id="Path_791" data-name="Path 791" d="M91.964,79.819H89.328a.946.946,0,0,0,0,1.893h2.635a.946.946,0,0,0,0-1.893Z" transform="translate(-68.015 -67.897)" fill="#cb652b"/>
      <path id="Path_792" data-name="Path 792" d="M122.838,148.525a2.24,2.24,0,0,0-1.136-2.868v-3.741a.946.946,0,1,0-1.893,0v3.741a2.243,2.243,0,0,0,1.648,4.164c3.724,3.724,3.595,3.734,4.126,3.734a.947.947,0,0,0,.669-1.616Z" transform="translate(-91.016 -114.581)" fill="#cb652b"/>
      <path id="Path_793" data-name="Path 793" d="M23.065,111.518H16.677a.946.946,0,1,0,0,1.893h6.388a.946.946,0,1,0,0-1.893Z" transform="translate(-12.551 -92.097)" fill="#cb652b"/>
      <path id="Path_794" data-name="Path 794" d="M61.747,111.518h-3.07a.946.946,0,0,0,0,1.893h3.07a.946.946,0,0,0,0-1.893Z" transform="translate(-44.615 -92.097)" fill="#cb652b"/>
      <path id="Path_795" data-name="Path 795" d="M59.508,29.426H4.555A2.267,2.267,0,0,0,2.291,31.69V52.6a2.267,2.267,0,0,0,2.264,2.264H20.893a13.528,13.528,0,1,0,22.276,0H59.508A2.267,2.267,0,0,0,61.771,52.6V31.69A2.267,2.267,0,0,0,59.508,29.426ZM43.629,61.589H41.952a.946.946,0,1,0,0,1.893h1.677A11.654,11.654,0,0,1,32.978,74.133V72.456a.946.946,0,0,0-1.893,0v1.677A11.654,11.654,0,0,1,20.434,63.482H22.11a.946.946,0,1,0,0-1.893H20.434A11.654,11.654,0,0,1,31.085,50.938v1.677a.946.946,0,0,0,1.893,0V50.938A11.654,11.654,0,0,1,43.629,61.589Zm16.25-8.99a.372.372,0,0,1-.371.371H41.594a13.509,13.509,0,0,0-19.126,0H4.555a.372.372,0,0,1-.371-.371V31.69a.372.372,0,0,1,.371-.371H59.508a.372.372,0,0,1,.371.371Z" transform="translate(-2.291 -29.426)" fill="#cb652b"/>
    </g>
  </g>
</svg>
