<svg xmlns="http://www.w3.org/2000/svg" width="80" height="80" viewBox="0 0 80 80">
  <path id="home" d="M78.351,34.8l-.006-.006L45.708,2.157a7.365,7.365,0,0,0-10.417,0L2.672,34.773l-.033.034a7.362,7.362,0,0,0,4.9,12.548c.076.007.151.011.228.011h1.3V71.38A8.63,8.63,0,0,0,17.689,80H30.457A2.344,2.344,0,0,0,32.8,77.656V58.827a3.937,3.937,0,0,1,3.934-3.933h7.531A3.937,3.937,0,0,1,48.2,58.827V77.656A2.344,2.344,0,0,0,50.543,80H63.311a8.63,8.63,0,0,0,8.621-8.619V47.365h1.206A7.366,7.366,0,0,0,78.351,34.8Zm-3.319,7.1a2.661,2.661,0,0,1-1.893.785h-3.55a2.344,2.344,0,0,0-2.344,2.344V71.38a3.937,3.937,0,0,1-3.933,3.932H52.887V58.828a8.63,8.63,0,0,0-8.621-8.62H36.735a8.631,8.631,0,0,0-8.621,8.62V75.312H17.688a3.937,3.937,0,0,1-3.933-3.932V45.021a2.344,2.344,0,0,0-2.344-2.344H7.922c-.037,0-.073,0-.11,0a2.674,2.674,0,0,1-1.844-4.567h0l0,0L38.607,5.471a2.676,2.676,0,0,1,3.786,0L75.022,38.1l.015.015a2.683,2.683,0,0,1,0,3.782Zm0,0" transform="translate(-0.5 0.001)" fill="#cb652b"/>
</svg>
