<svg xmlns="http://www.w3.org/2000/svg" width="90.951" height="91.425" viewBox="0 0 90.951 91.425">
  <g id="search-magnifier-interface-symbol" transform="translate(-1.53)">
    <g id="Group_168" data-name="Group 168" transform="translate(1.53)">
      <path id="Path_463" data-name="Path 463" d="M382.8,367.836l-21.13-17.927a2.686,2.686,0,0,0-3.969.532,36.316,36.316,0,0,1-8.764,8.768,2.757,2.757,0,0,0-1.153,1.88,2.675,2.675,0,0,0,.615,2.081l17.939,21.149a6.236,6.236,0,0,0,9.305.415l7.583-7.583a6.236,6.236,0,0,0-.425-9.313Z" transform="translate(-294.161 -295.193)" fill="#fff"/>
      <path id="Path_464" data-name="Path 464" d="M35.1,67.149A33.574,33.574,0,1,0,1.53,33.574,33.355,33.355,0,0,0,35.1,67.149ZM12.41,33.574A22.683,22.683,0,1,1,35.1,56.268,22.719,22.719,0,0,1,12.41,33.574Z" transform="translate(-1.53)" fill="#fff"/>
    </g>
  </g>
</svg>
