<svg xmlns="http://www.w3.org/2000/svg" width="88.043" height="81.185" viewBox="0 0 88.043 81.185">
  <path id="favorite" d="M63.2,10.346a25.192,25.192,0,0,0-19.182,8.771,25.191,25.191,0,0,0-19.182-8.771C11.143,10.346,0,21.11,0,34.342,0,44.7,6.4,56.686,19.008,69.96a181.176,181.176,0,0,0,23.27,20.305l1.743,1.265,1.743-1.265A181.177,181.177,0,0,0,69.035,69.961C81.648,56.687,88.043,44.7,88.043,34.342,88.043,21.11,76.9,10.346,63.2,10.346Zm1.555,55.822A174.551,174.551,0,0,1,44.021,84.493,174.58,174.58,0,0,1,23.284,66.168C11.849,54.133,5.805,43.128,5.805,34.342c0-10.139,8.539-18.388,19.034-18.388a19.164,19.164,0,0,1,16.644,9.491l2.539,4.424,2.539-4.424A19.164,19.164,0,0,1,63.2,15.954c10.5,0,19.034,8.249,19.034,18.388C82.238,43.128,76.194,54.134,64.759,66.168Z" transform="translate(0 -10.346)" fill="#fffaf6"/>
</svg>
